<?xml version="1.0" encoding="iso-8859-1"?>
<!-- Generator: Adobe Illustrator 16.0.0, SVG Export Plug-In . SVG Version: 6.00 Build 0)  -->
<!DOCTYPE svg PUBLIC "-//W3C//DTD SVG 1.1//EN" "http://www.w3.org/Graphics/SVG/1.1/DTD/svg11.dtd">
<svg version="1.1" id="Capa_1" xmlns="http://www.w3.org/2000/svg" xmlns:xlink="http://www.w3.org/1999/xlink" x="0px" y="0px"
	 width="579.885px" height="579.885px" viewBox="0 0 579.885 579.885" style="enable-background:new 0 0 579.885 579.885;"
	 xml:space="preserve">
<g>
	<g>
		<g>
			<path d="M91.446,366.674c-9.556-6.543-20.806-10.059-32.576-10.059c-14.859,0-29.026,5.588-39.892,15.732
				c-5.711,5.332-10.211,11.646-13.372,18.764c-3.311,7.455-4.989,15.422-4.988,23.68l0.009,109.596
				c-0.285,14.164,5.105,28.064,14.906,38.326c10.12,10.596,24.321,16.672,38.965,16.672c0.375,0,0.753-0.004,1.131-0.012
				l110.579,0.01c23.583,0.002,44.662-14.07,53.703-35.852c7.722-18.604,5.26-39.459-6-55.551l74.03-73.881
				c0.686-0.686,1.354-1.385,2.001-2.098c0.647,0.713,1.313,1.41,2,2.096l74.032,73.883c-11.26,16.092-13.723,36.945-6.001,55.549
				c9.04,21.781,30.117,35.854,53.698,35.854l110.583-0.01c0.378,0.008,0.756,0.012,1.131,0.012
				c14.644,0,28.846-6.076,38.965-16.672c9.802-10.262,15.191-24.162,14.907-38.326l0.009-109.596
				c0.001-8.256-1.678-16.223-4.988-23.678c-3.161-7.119-7.66-13.432-13.371-18.764c-10.867-10.146-25.033-15.734-39.892-15.734
				c-11.771,0-23.021,3.518-32.576,10.059l-74.456-74.611c-0.728-0.729-1.471-1.434-2.229-2.119c0.758-0.685,1.502-1.39,2.229-2.119
				l74.456-74.611c9.556,6.542,20.806,10.058,32.576,10.058c14.857,0,29.024-5.587,39.892-15.732
				c5.711-5.333,10.21-11.646,13.371-18.764c3.311-7.456,4.989-15.422,4.988-23.679l-0.009-109.597
				c0.284-14.164-5.105-28.064-14.907-38.326C554.231,6.578,540.029,0.501,525.386,0.501c-0.375,0-0.752,0.004-1.131,0.012
				l-110.578-0.01c-23.582-0.002-44.662,14.07-53.703,35.851c-7.722,18.604-5.26,39.458,6.001,55.552l-74.031,73.882
				c-0.686,0.685-1.353,1.384-2.001,2.097c-0.647-0.712-1.313-1.411-2-2.096l-74.031-73.883c11.259-16.093,13.722-36.945,6-55.549
				c-9.04-21.78-30.117-35.854-53.698-35.854L55.627,0.512C55.262,0.504,54.896,0.5,54.533,0.5c-0.011,0-0.021,0-0.03,0
				C39.858,0.499,25.656,6.575,15.536,17.171C5.732,27.433,0.343,41.333,0.627,55.498L0.618,165.095
				c0,8.256,1.677,16.223,4.988,23.678c3.161,7.118,7.66,13.431,13.371,18.764c10.867,10.146,25.033,15.733,39.892,15.733
				c11.77,0,23.021-3.517,32.576-10.059l74.456,74.611c0.728,0.729,1.471,1.434,2.23,2.12c-0.758,0.686-1.502,1.392-2.23,2.12
				L91.446,366.674z M289.942,245.994c0.635,0.698,1.288,1.383,1.959,2.056l39.817,39.816c0.713,0.714,1.442,1.405,2.186,2.076
				c-0.743,0.671-1.473,1.362-2.186,2.075l-39.816,39.816c-0.672,0.672-1.325,1.357-1.96,2.057
				c-0.635-0.699-1.288-1.383-1.959-2.057l-39.817-39.816c-0.713-0.713-1.442-1.404-2.186-2.075
				c0.743-0.671,1.473-1.363,2.186-2.076l39.817-39.816C288.655,247.379,289.308,246.693,289.942,245.994z M476.916,415.775
				c2.99,2.996,6.91,4.492,10.83,4.492c3.931,0,7.862-1.506,10.854-4.516l11.673-11.75c3.121-3.141,6.969-4.547,10.743-4.547
				c7.864,0,15.411,6.105,15.411,15.332l-0.01,110.197c0.292,6.324-4.769,11.562-11.031,11.562c-0.171,0-0.344-0.004-0.518-0.014
				l-111.195,0.01h-0.001c-13.62,0-20.451-16.459-10.834-26.104l12.288-12.322c5.965-5.982,5.954-15.666-0.026-21.633
				l-92.895-92.709c-5.984-5.973-5.989-15.668-0.011-21.648l39.816-39.814c2.988-2.988,6.903-4.482,10.819-4.482
				c3.92,0,7.841,1.498,10.829,4.492L476.916,415.775z M322.205,196.11l92.895-92.708c5.98-5.967,5.991-15.651,0.026-21.633
				l-12.288-12.323c-9.618-9.645-2.786-26.104,10.835-26.104l111.195,0.009c0.173-0.008,0.346-0.012,0.518-0.012
				c6.263,0,11.323,5.237,11.031,11.562l0.01,110.197c0,9.227-7.547,15.332-15.411,15.332c-3.774,0-7.622-1.406-10.743-4.547
				L498.6,164.135c-2.991-3.011-6.923-4.516-10.854-4.516c-3.92,0-7.841,1.497-10.83,4.493l-93.257,93.452
				c-2.988,2.995-6.909,4.493-10.829,4.493c-3.916,0-7.831-1.493-10.819-4.481l-39.816-39.816
				C316.216,211.779,316.221,202.083,322.205,196.11z M102.968,164.111c-2.989-2.996-6.909-4.493-10.829-4.493
				c-3.932,0-7.863,1.506-10.854,4.516l-11.673,11.749c-3.121,3.141-6.968,4.547-10.742,4.547c-7.865,0-15.412-6.104-15.412-15.332
				l0.009-110.197c-0.292-6.325,4.77-11.562,11.031-11.562c0.171,0,0.345,0.003,0.519,0.012l111.195-0.009h0.001
				c13.62,0,20.452,16.459,10.834,26.104l-12.289,12.323c-5.964,5.982-5.954,15.666,0.026,21.633l92.895,92.708
				c5.984,5.973,5.989,15.669,0.011,21.648l-39.816,39.816c-2.988,2.988-6.903,4.481-10.819,4.481
				c-3.919,0-7.841-1.498-10.829-4.493L102.968,164.111z M196.226,322.322c2.988-2.994,6.91-4.492,10.83-4.492
				c3.916,0,7.831,1.492,10.819,4.48l39.816,39.816c5.979,5.979,5.975,15.676-0.011,21.648l-92.895,92.709
				c-5.98,5.967-5.991,15.65-0.026,21.633l12.289,12.322c9.618,9.645,2.786,26.105-10.835,26.104l-111.195-0.008
				c-0.173,0.008-0.347,0.012-0.519,0.012c-6.262,0-11.323-5.236-11.031-11.562l-0.009-110.197c0-9.227,7.547-15.332,15.412-15.332
				c3.774,0,7.621,1.406,10.742,4.547l11.673,11.75c2.992,3.01,6.923,4.516,10.854,4.516c3.92,0,7.84-1.496,10.829-4.492
				L196.226,322.322z"/>
			<path d="M525.386,579.885c-0.379,0-0.76-0.004-1.142-0.012l-110.572,0.01c-23.783,0-45.043-14.194-54.16-36.162
				c-7.675-18.49-5.497-39.272,5.813-55.682l-73.736-73.588c-0.562-0.562-1.115-1.136-1.646-1.71
				c-0.534,0.577-1.087,1.151-1.648,1.712l-73.734,73.586c11.311,16.409,13.488,37.191,5.812,55.684
				c-9.118,21.967-30.376,36.16-54.16,36.16l-110.584-0.01c-0.371,0.008-0.752,0.012-1.131,0.012
				c-14.779,0-29.113-6.133-39.327-16.826c-9.848-10.311-15.331-24.41-15.044-38.682L0.118,414.791
				c-0.001-8.328,1.692-16.363,5.031-23.883c3.189-7.181,7.728-13.548,13.488-18.926c10.959-10.232,25.248-15.867,40.233-15.867
				c11.664,0,22.896,3.426,32.515,9.912l74.163-74.318c0.592-0.592,1.21-1.185,1.842-1.767c-0.633-0.582-1.251-1.175-1.842-1.767
				l-74.163-74.318c-9.619,6.486-20.852,9.912-32.515,9.912c-14.985,0-29.273-5.635-40.233-15.867
				c-5.761-5.38-10.298-11.748-13.487-18.927c-3.339-7.518-5.032-15.553-5.031-23.881L0.127,55.498
				c-0.287-14.263,5.198-28.363,15.047-38.672C25.387,6.133,39.72,0,54.497,0c0.403,0,0.771,0.004,1.14,0.012l110.577-0.009
				c23.783,0,45.042,14.194,54.16,36.162c7.674,18.49,5.497,39.272-5.813,55.682l73.735,73.587c0.557,0.556,1.109,1.129,1.647,1.71
				c0.539-0.581,1.091-1.155,1.647-1.711l73.735-73.586c-11.311-16.41-13.488-37.193-5.813-55.685
				c9.118-21.966,30.377-36.16,54.16-36.16l110.583,0.01c0.373-0.007,0.753-0.012,1.131-0.012c14.779,0,29.113,6.133,39.326,16.827
				c9.849,10.31,15.332,24.409,15.046,38.681l0.009,109.587c0.001,8.325-1.691,16.36-5.031,23.882
				c-3.188,7.179-7.726,13.547-13.487,18.926c-10.96,10.232-25.248,15.867-40.232,15.867c-11.662,0-22.895-3.426-32.515-9.912
				l-74.164,74.317c-0.588,0.589-1.205,1.182-1.841,1.766c0.633,0.582,1.251,1.175,1.841,1.766l74.164,74.318
				c9.62-6.486,20.854-9.912,32.515-9.912c14.984,0,29.272,5.636,40.232,15.869c5.762,5.379,10.299,11.746,13.487,18.926
				c3.34,7.521,5.032,15.556,5.031,23.881l-0.009,109.596c0.286,14.263-5.197,28.361-15.046,38.672
				C554.5,573.752,540.166,579.885,525.386,579.885z M524.255,578.873c0.385,0.008,0.76,0.012,1.131,0.012
				c14.508,0,28.578-6.021,38.604-16.518c9.667-10.12,15.05-23.96,14.769-37.971l0.009-109.605
				c0.001-8.186-1.663-16.083-4.945-23.475c-3.133-7.057-7.593-13.314-13.255-18.602c-10.774-10.06-24.82-15.6-39.551-15.6
				c-11.598,0-22.765,3.448-32.294,9.971l-0.343,0.235l-0.293-0.294l-74.456-74.611c-0.705-0.705-1.448-1.412-2.211-2.102
				l-0.411-0.371l0.411-0.371c0.766-0.692,1.51-1.399,2.211-2.101l74.749-74.905l0.343,0.235c9.528,6.523,20.695,9.971,32.294,9.971
				c14.729,0,28.776-5.54,39.551-15.598c5.662-5.287,10.121-11.546,13.255-18.602c3.282-7.393,4.946-15.291,4.945-23.476
				l-0.009-109.597c0.281-14.02-5.102-27.86-14.769-37.98C553.964,7.021,539.894,1.001,525.386,1.001
				c-0.372,0-0.745,0.004-1.121,0.012l-110.588-0.01c-23.383,0-44.279,13.951-53.241,35.543
				c-7.597,18.304-5.373,38.892,5.948,55.073l0.241,0.344l-0.297,0.297l-74.031,73.882c-0.674,0.672-1.341,1.372-1.984,2.079
				l-0.37,0.407l-0.37-0.407c-0.642-0.707-1.309-1.406-1.983-2.078l-74.329-74.18l0.241-0.344
				c11.321-16.182,13.545-36.769,5.948-55.071c-8.961-21.593-29.858-35.545-53.236-35.545L55.627,1.012
				C55.255,1.004,54.893,1,54.533,1c-14.541,0-28.61,6.02-38.635,16.516C6.229,27.637,0.846,41.477,1.127,55.488L1.118,165.095
				c0,8.188,1.664,16.086,4.945,23.475c3.133,7.056,7.593,13.314,13.255,18.602c10.774,10.059,24.82,15.598,39.551,15.598
				c11.599,0,22.766-3.448,32.293-9.971l0.343-0.235l0.293,0.294l74.456,74.611c0.704,0.706,1.448,1.413,2.211,2.102l0.411,0.371
				l-0.411,0.371c-0.762,0.688-1.506,1.396-2.212,2.103l-74.748,74.905l-0.343-0.235c-9.526-6.522-20.693-9.971-32.293-9.971
				c-14.731,0-28.777,5.539-39.55,15.598c-5.662,5.286-10.122,11.544-13.256,18.602c-3.282,7.391-4.946,15.289-4.945,23.477
				l0.009,109.596c-0.282,14.021,5.101,27.86,14.768,37.98c10.025,10.497,24.096,16.518,38.604,16.518
				c0.372,0,0.746-0.004,1.121-0.012l110.589,0.01c23.383,0,44.279-13.951,53.241-35.543c7.598-18.305,5.375-38.893-5.948-55.072
				l-0.241-0.345l0.297-0.296l74.03-73.881c0.681-0.681,1.348-1.381,1.984-2.08l0.37-0.407l0.37,0.407
				c0.632,0.696,1.3,1.396,1.983,2.078l74.329,74.179l-0.241,0.345c-11.321,16.18-13.545,36.768-5.948,55.07
				c8.962,21.593,29.858,35.545,53.236,35.545L524.255,578.873z M525.386,537.047c-0.176,0-0.353-0.004-0.531-0.014l-111.182,0.01
				c-6.508,0-12.1-3.733-14.594-9.743c-2.494-6.011-1.189-12.605,3.404-17.214l12.288-12.322c5.761-5.776,5.749-15.164-0.025-20.926
				l-92.895-92.709c-2.988-2.982-4.636-6.951-4.638-11.175c-0.002-4.223,1.641-8.193,4.627-11.181l39.816-39.814
				c2.985-2.985,6.953-4.629,11.173-4.629c4.226,0,8.197,1.647,11.183,4.639l93.257,93.453c2.797,2.803,6.518,4.346,10.477,4.346
				c3.971,0,7.699-1.552,10.499-4.368l11.673-11.75c3.008-3.027,6.949-4.694,11.098-4.694c9.96,0,15.911,8.05,15.911,15.832
				l-0.01,110.197c0.146,3.16-0.984,6.182-3.185,8.486C531.53,535.776,528.566,537.047,525.386,537.047z M524.868,536.033
				l0.028,0.001c3.103,0.159,5.988-1.03,8.113-3.255c2.009-2.104,3.042-4.864,2.908-7.771l0.009-110.221
				c0-7.291-5.577-14.832-14.911-14.832c-3.937,0-7.528,1.521-10.389,4.399l-11.673,11.75c-2.988,3.007-6.969,4.663-11.208,4.663
				c-4.227,0-8.198-1.647-11.184-4.639l-93.257-93.453c-2.797-2.803-6.518-4.346-10.476-4.346c-3.953,0-7.67,1.54-10.466,4.336
				l-39.816,39.814c-2.797,2.798-4.336,6.518-4.334,10.474s1.545,7.673,4.345,10.468l92.895,92.709
				c6.164,6.15,6.177,16.172,0.027,22.339l-12.288,12.323c-4.304,4.315-5.526,10.494-3.189,16.123
				c2.336,5.63,7.574,9.127,13.669,9.127L524.868,536.033z M54.499,537.047c-3.18,0-6.145-1.27-8.347-3.576
				c-2.2-2.304-3.331-5.325-3.184-8.51l-0.01-110.174c0-4.45,1.745-8.531,4.915-11.491c2.954-2.759,6.962-4.341,10.997-4.341
				c4.147,0,8.088,1.667,11.097,4.694l11.673,11.75c2.8,2.816,6.529,4.368,10.5,4.368c3.96,0,7.68-1.543,10.475-4.346l93.257-93.453
				c2.986-2.991,6.958-4.639,11.184-4.639c4.221,0,8.189,1.644,11.172,4.627l39.816,39.816c2.986,2.986,4.63,6.956,4.628,11.18
				s-1.649,8.193-4.639,11.176l-92.895,92.709c-5.774,5.762-5.785,15.149-0.025,20.927l12.289,12.321
				c4.595,4.607,5.899,11.203,3.405,17.214c-2.494,6.01-8.085,9.743-14.592,9.743l-111.197-0.008
				C54.859,537.043,54.678,537.047,54.499,537.047z M58.87,399.955c-3.784,0-7.543,1.484-10.314,4.071
				c-2.965,2.769-4.598,6.59-4.598,10.761l0.009,110.197c-0.134,2.932,0.898,5.691,2.908,7.796c2.125,2.226,5.024,3.382,8.12,3.256
				l111.217,0.007c6.097,0,11.334-3.497,13.67-9.127c2.336-5.63,1.114-11.808-3.189-16.123l-12.289-12.322
				c-6.149-6.168-6.137-16.189,0.027-22.34l92.895-92.709c2.8-2.795,4.343-6.513,4.345-10.469s-1.538-7.676-4.335-10.473
				l-39.816-39.816c-2.794-2.795-6.511-4.334-10.465-4.334c-3.958,0-7.679,1.543-10.476,4.346l-93.257,93.453
				c-2.984,2.991-6.956,4.639-11.183,4.639c-4.239,0-8.22-1.656-11.208-4.663l-11.673-11.75
				C66.397,401.477,62.805,399.955,58.87,399.955z M289.942,334.635l-0.37-0.408c-0.63-0.693-1.277-1.371-1.943-2.04l-39.817-39.815
				c-0.692-0.691-1.421-1.384-2.167-2.058l-0.411-0.371l0.411-0.371c0.746-0.673,1.475-1.366,2.167-2.059l39.817-39.816
				c0.653-0.652,1.307-1.338,1.943-2.039l0.37-0.407l0.37,0.407c0.63,0.692,1.277,1.372,1.942,2.039l39.817,39.816
				c0.688,0.689,1.417,1.382,2.167,2.059l0.411,0.371l-0.411,0.371c-0.746,0.674-1.476,1.366-2.167,2.058l-39.816,39.816
				c-0.662,0.663-1.316,1.349-1.943,2.039L289.942,334.635z M246.723,289.942c0.617,0.567,1.22,1.145,1.797,1.722l39.817,39.816
				c0.548,0.55,1.083,1.105,1.605,1.67c0.523-0.565,1.062-1.125,1.606-1.67l39.816-39.816c0.577-0.577,1.18-1.154,1.797-1.722
				c-0.619-0.569-1.223-1.147-1.797-1.723l-39.817-39.816c-0.547-0.548-1.082-1.104-1.605-1.669
				c-0.529,0.572-1.068,1.132-1.606,1.67L248.52,288.22C247.942,288.798,247.339,289.376,246.723,289.942z M372.83,262.556
				c-4.221,0-8.188-1.644-11.173-4.627l-39.816-39.816c-2.986-2.987-4.629-6.958-4.627-11.181c0.002-4.224,1.649-8.192,4.638-11.176
				l92.895-92.708c5.774-5.762,5.786-15.149,0.025-20.926l-12.288-12.323c-4.594-4.607-5.898-11.203-3.404-17.213
				c2.494-6.01,8.086-9.744,14.593-9.744l111.196,0.009c0.158-0.008,0.338-0.012,0.518-0.012c3.181,0,6.145,1.27,8.348,3.576
				c2.199,2.304,3.33,5.326,3.184,8.509l0.01,110.174c0,7.782-5.951,15.832-15.911,15.832c-4.148,0-8.09-1.667-11.098-4.695
				l-11.673-11.749c-2.799-2.817-6.527-4.369-10.499-4.369c-3.959,0-7.68,1.543-10.477,4.346l-93.257,93.452
				C381.027,260.908,377.056,262.556,372.83,262.556z M413.673,43.342l-0.001,0.5c-6.095,0-11.333,3.497-13.669,9.127
				c-2.337,5.629-1.114,11.808,3.189,16.124l12.288,12.323c6.149,6.167,6.137,16.189-0.027,22.34l-92.895,92.708
				c-2.8,2.794-4.343,6.512-4.345,10.468s1.537,7.675,4.334,10.473l39.816,39.816c2.796,2.795,6.513,4.334,10.466,4.334
				c3.958,0,7.679-1.543,10.476-4.346l93.257-93.452c2.985-2.992,6.957-4.64,11.184-4.64c4.239,0,8.221,1.656,11.208,4.664
				l11.673,11.749c2.859,2.878,6.452,4.4,10.389,4.4c9.334,0,14.911-7.542,14.911-14.832l-0.01-110.197
				c0.135-2.931-0.897-5.691-2.907-7.795c-2.125-2.226-5.032-3.394-8.119-3.256l-111.218-0.009V43.342z M207.055,262.555
				c-4.226,0-8.198-1.648-11.183-4.64l-93.257-93.451c-2.796-2.802-6.517-4.346-10.475-4.346c-3.972,0-7.701,1.551-10.5,4.369
				l-11.673,11.749c-3.008,3.027-6.949,4.694-11.097,4.694c-4.034,0-8.042-1.582-10.997-4.34c-3.17-2.959-4.915-7.041-4.915-11.491
				l0.009-110.197c-0.146-3.16,0.985-6.182,3.185-8.486c2.327-2.437,5.492-3.727,8.889-3.563l111.171-0.01
				c6.507,0,12.1,3.734,14.594,9.744c2.495,6.01,1.19,12.605-3.405,17.212l-12.289,12.323c-5.76,5.777-5.749,15.165,0.025,20.926
				l92.895,92.708c2.989,2.983,4.636,6.952,4.639,11.175c0.002,4.224-1.642,8.194-4.627,11.18l-39.816,39.816
				C215.244,260.911,211.275,262.555,207.055,262.555z M92.139,159.118c4.226,0,8.198,1.647,11.183,4.64l93.257,93.451
				c2.796,2.802,6.517,4.346,10.475,4.346c3.954,0,7.67-1.54,10.466-4.334l39.816-39.816c2.797-2.797,4.336-6.517,4.334-10.472
				c-0.002-3.956-1.545-7.674-4.345-10.468l-92.895-92.708c-6.165-6.151-6.177-16.173-0.027-22.34l12.289-12.323
				c4.304-4.316,5.526-10.494,3.189-16.124s-7.574-9.127-13.669-9.127L55.017,43.851c-0.19-0.008-0.355-0.012-0.519-0.012
				c-2.904,0-5.612,1.16-7.624,3.267c-2.009,2.104-3.042,4.865-2.908,7.772l-0.009,110.22c0,4.17,1.633,7.992,4.598,10.76
				c2.771,2.587,6.53,4.071,10.314,4.071c3.936,0,7.528-1.521,10.388-4.399l11.673-11.749
				C83.918,160.774,87.899,159.118,92.139,159.118z"/>
		</g>
	</g>
</g>
<g>
</g>
<g>
</g>
<g>
</g>
<g>
</g>
<g>
</g>
<g>
</g>
<g>
</g>
<g>
</g>
<g>
</g>
<g>
</g>
<g>
</g>
<g>
</g>
<g>
</g>
<g>
</g>
<g>
</g>
</svg>
